<svg id="Layer_1" data-name="Layer 1" xmlns="http://www.w3.org/2000/svg" viewBox="0 0 512 200"><defs><style>.cls-1{fill:#010101;}</style></defs><title>logo-width</title><path class="cls-1" d="M192.26,94.18a108.41,108.41,0,0,1-10.09-8c-.56-.49-1.12-1-1.71-1.43a2.56,2.56,0,0,1-1-1.61,78.38,78.38,0,0,0-4.71-15,71.93,71.93,0,0,0-6.36-11.94,2.06,2.06,0,0,1-.38-1.38c.36-5.25.82-10.49,1.56-15.7,0-.21.1-.42.19-.83C177.85,47,183.38,57,187.69,67.79c3.71,9.32,5.66,23,5.44,26.93C192.82,94.53,192.53,94.36,192.26,94.18Zm-2.64-17.62a94.28,94.28,0,0,0-12-26.84,67.05,67.05,0,0,0-7.38-9.66c-.09.58-.16.91-.2,1.24-.23,2-.47,4-.68,6-.23,2.21-.42,4.43-.64,6.65a3.6,3.6,0,0,0,.73,2.61,47.89,47.89,0,0,1,5.08,9,84.55,84.55,0,0,1,5.69,17.33,1.88,1.88,0,0,0,.66,1.17l10.44,8.66a1,1,0,0,0,1,.34A91.34,91.34,0,0,0,189.62,76.56Zm-6.36,5.68a1.93,1.93,0,0,1-.52-1.15,86.14,86.14,0,0,0-4.63-14.47,74.31,74.31,0,0,0-5.91-11.24,2.58,2.58,0,0,1-.47-1.81c.2-1.81.31-3.64.46-5.46,0-.27.07-.53.11-.8A86.66,86.66,0,0,1,188.87,86.9a6.46,6.46,0,0,1-.68-.42C186.54,85.07,184.92,83.64,183.26,82.24Zm-5.1-24.58a67.26,67.26,0,0,0-5.14-8.1c-.19,1.38-.37,2.52-.51,3.68a2.74,2.74,0,0,0,.44,1.85c.82,1.27,1.61,2.57,2.35,3.89a79.84,79.84,0,0,1,8.14,21.64,2.22,2.22,0,0,0,.76,1.32c.91.75,1.78,1.54,2.67,2.31.23.19.48.36.84.63A86.27,86.27,0,0,0,178.16,57.66ZM190.66,100l-9.62,7.5a80.71,80.71,0,0,0,0-15.07Zm-8.58,5.64,7.29-5.65-7.29-5.62ZM172,137.83a70.92,70.92,0,0,0,6.9-18.25c.19-.82.33-1.64.51-2.46a3,3,0,0,1,1.06-1.81c3.91-3,7.39-6.59,11.56-9.32l1.22-.79a91.26,91.26,0,0,1-23.33,56.45l-.24-.07c-.15-1.07-.34-2.13-.45-3.2-.35-3.36-.66-6.72-1-10.07-.08-.84-.08-1.68-.24-2.5a3.19,3.19,0,0,1,.62-2.43C169.79,141.55,171,139.73,172,137.83Zm-3.24,8c.07.71.13,1.42.2,2.13q.47,4.65.94,9.32c.09.83.23,1.64.36,2.55a2.4,2.4,0,0,0,.48-.3,11.34,11.34,0,0,0,.95-1,94.58,94.58,0,0,0,9-13.18,91.21,91.21,0,0,0,11.68-37.73c0-.2,0-.41,0-.72a9.5,9.5,0,0,0-2.24,1.45c-2.87,2.36-5.72,4.75-8.59,7.1a3.58,3.58,0,0,0-1.47,2.57,6.85,6.85,0,0,1-.24,1.09c-2.22,8.78-5.35,17.18-10.51,24.72A3,3,0,0,0,168.76,145.82Zm10.33-14.76a85,85,0,0,0,3.25-10.35c.15-.63.19-1.29.37-1.91a2.31,2.31,0,0,1,.6-1.11c1.63-1.42,3.31-2.79,5-4.17a3.68,3.68,0,0,1,.56-.29,87.84,87.84,0,0,1-7.16,24c-2.38,5.12-7.5,13.68-9.32,15.52a3.37,3.37,0,0,1-.15-.61c-.18-2.07-.36-4.13-.49-6.2a1.8,1.8,0,0,1,.32-1A77,77,0,0,0,179.09,131.06Zm-6.58,15.46c.14,1.27.3,2.54.47,3.86,1.54-1.43,5.46-8.07,7.48-12.65,3.19-7.19,6.15-14.46,7-22.44-1,.84-2,1.71-3.05,2.52a3,3,0,0,0-1.14,1.75c-.18.75-.33,1.51-.51,2.27a69.9,69.9,0,0,1-6.16,16.67c-1,2-2.21,3.87-3.33,5.79A3.65,3.65,0,0,0,172.51,146.52Zm-14.77,10.57c1.72-1.72,3.34-3.56,5.06-5.41.51,4,1,8,1.53,12l-12-1.48C154.2,160.43,156,158.82,157.74,157.09Zm4.5-3.4a3.85,3.85,0,0,0-.38.3l-7.17,7a3.64,3.64,0,0,0-.38.58l9.08,1.16C163,159.74,162.63,156.78,162.24,153.69ZM152.3,37.86l12-1.49c-.5,4-1,8-1.51,12.09A109.44,109.44,0,0,0,152.3,37.86Zm2,.58,7.92,8c.4-3.16.78-6.15,1.17-9.15ZM149,32.37c-1,.1-2,.12-3,.28a2.1,2.1,0,0,1-1.56-.37,86.64,86.64,0,0,0-10.91-6,65.11,65.11,0,0,0-15.16-4.87,4.56,4.56,0,0,1-2.92-1.76c-2.16-2.68-4.43-5.26-6.6-7.92-1-1.22-1.86-2.55-2.78-3.83a5.79,5.79,0,0,1-.32-.57,94.58,94.58,0,0,1,33.75,8.36,97.72,97.72,0,0,1,22.88,15.09c-.89.16-1.56.34-2.25.41Q154.61,31.82,149,32.37Zm11.34-2.25a90.47,90.47,0,0,0-52.92-21.8,10,10,0,0,0,.58.89q4.13,5.13,8.28,10.25a3.44,3.44,0,0,0,2,1.18c.88.19,1.76.34,2.64.54a69.69,69.69,0,0,1,15.42,5.52,50.42,50.42,0,0,1,7.86,4.56,2.94,2.94,0,0,0,2.27.58c.64-.1,1.29-.14,1.94-.2,2.8-.26,5.61-.49,8.41-.77,1.15-.12,2.3-.35,3.45-.53C160.35,30.27,160.35,30.19,160.36,30.12ZM147.14,29a3.23,3.23,0,0,1-2.25-.68,59.93,59.93,0,0,0-11.38-6,64.29,64.29,0,0,0-12.65-3.9c-.37-.07-.73-.18-1.09-.26a3.15,3.15,0,0,1-1.84-1.17c-1.05-1.29-2.15-2.55-3.22-3.84-.27-.32-.48-.69-.86-1.23a84.31,84.31,0,0,1,15.85,3.81,92.09,92.09,0,0,1,23.8,12.55,8.07,8.07,0,0,1-.92.23C150.77,28.64,149,28.79,147.14,29ZM116,13a2.43,2.43,0,0,1-.14.2c.29.35.57.7.86,1a14.82,14.82,0,0,1,1.32,1.55,3.89,3.89,0,0,0,2.7,1.77c1,.21,2.06.43,3.08.7a77.11,77.11,0,0,1,21.86,9.52,1.78,1.78,0,0,0,.93.31c1.36-.08,2.71-.21,4.07-.34a2.64,2.64,0,0,0,.51-.2C140.37,20.29,128.8,15.17,116,13Zm-22.9,6.63,7.61-9.72a86.63,86.63,0,0,0,7.47,9.67A106.84,106.84,0,0,0,93.13,19.61Zm7.49-8.33c-1.88,2.43-3.75,4.83-5.68,7.31h11.34ZM70.06,12.57c.42-.19.72-.33,1-.45A59.88,59.88,0,0,1,79,9.78a92.44,92.44,0,0,1,16-2.4,1.32,1.32,0,0,1,.26,0c-.6,1.63-6.91,9.54-10.5,13.17C79.9,18,74.84,15.72,70.06,12.57Zm1.94.21a101.46,101.46,0,0,0,12.76,6.71,135.56,135.56,0,0,0,9-11.06C89.94,8,74.12,11.22,72,12.78Zm7.22.85c0-.08,0-.15,0-.23a49.63,49.63,0,0,1,7.94-1.5l.12.25L84,16.08Zm5.63.14a4.81,4.81,0,0,0,.44-.57l-.06-.2c-.9.15-1.81.29-2.71.45-.32.06-.63.15-1,.23a4.9,4.9,0,0,0,2,1.22C84.24,14.81,84.45,14.17,84.85,13.77Zm-8,9-.83.32a81.6,81.6,0,0,0-19.44,9.3,1.5,1.5,0,0,1-1.05.26c-4.34-.42-8.68-.82-13-1.25-1.16-.12-2.3-.35-3.65-.56A92.1,92.1,0,0,1,63.52,14.94c2.24,1.41,4.38,2.83,6.58,4.13S74.52,21.53,76.83,22.81ZM40.74,30.28a7.31,7.31,0,0,0,.81.23c1.69.2,3.38.4,5.07.57,2.06.21,4.13.39,6.19.59.71.07,1.41.17,2.12.24a2.69,2.69,0,0,0,1.9-.56c1.07-.74,2.15-1.47,3.27-2.11a90.34,90.34,0,0,1,13.6-6.15c.33-.12.66-.26,1.16-.46a90.34,90.34,0,0,1-11.32-6.82A90.06,90.06,0,0,0,40.74,30.28ZM56,28.55a3.08,3.08,0,0,1-2.31.44,29.28,29.28,0,0,0-5.53-.54,1.4,1.4,0,0,1-.35-.15c.32-.26.57-.47.83-.66a77.84,77.84,0,0,1,11.06-6.78c1-.53,2-1,3-1.57a.83.83,0,0,1,.94,0C65,20.22,66.4,21.1,67.77,22c0,0,0,.1.1.22l-.63.31A77.61,77.61,0,0,0,56,28.55Zm7.49-8.32a1,1,0,0,0-.77.06A76.64,76.64,0,0,0,51,27c-.24.17-.46.37-.84.69,1.66.14,3.12.28,4.59.37a1.33,1.33,0,0,0,.75-.29,97.68,97.68,0,0,1,9.7-5.26c.3-.15.59-.31,1-.55C65.21,21.35,64.35,20.76,63.46,20.23ZM48.9,37.8l0,.1a.12.12,0,0,1,0,.08l-.47.44c-1.35,1.23-2.74,2.42-4,3.7-2,2-4,4.13-6,6.22-.5-4-1-8-1.49-12,2,.29,4,.61,6,.85S46.91,37.59,48.9,37.8ZM39,46.2l7.78-7.78-8.91-1.11C38.26,40.38,38.63,43.34,39,46.2ZM30.06,60.84a78.41,78.41,0,0,0-8.29,22.27A2.26,2.26,0,0,1,21,84.49c-3.23,2.66-6.42,5.36-9.65,8-1,.8-2.05,1.48-3.11,2.23-.44-2,1.21-13.38,3.27-20.37a95.62,95.62,0,0,1,7.84-19C22.46,49.63,29,40.52,31.48,38.47c.24,1.66.51,3.18.67,4.72.39,3.66.71,7.33,1.1,11a4,4,0,0,1-.71,2.62C31.7,58.14,30.84,59.46,30.06,60.84Zm2.14-8.53c-.32-3.52-.63-7-1-10.54,0-.51-.16-1-.26-1.56-3.79,3.22-12,16.51-15.5,25A93.79,93.79,0,0,0,8.92,93.11a6.5,6.5,0,0,0,.75-.41c.78-.56,1.57-1.11,2.31-1.72,2.71-2.21,5.39-4.45,8.09-6.68a2.88,2.88,0,0,0,1.08-1.78c.06-.31.12-.61.19-.91A78.85,78.85,0,0,1,31.9,56.19a2.73,2.73,0,0,0,.47-1.75C32.31,53.73,32.27,53,32.2,52.31Zm-3.29,3.44a74.3,74.3,0,0,0-9.54,22.14c-.23.87-.39,1.75-.55,2.63a3.88,3.88,0,0,1-1.47,2.39c-1.26,1-2.47,2.06-3.71,3.08-.3.24-.64.45-1,.67l-.17-.14a84.31,84.31,0,0,1,7.28-24C22.34,56.86,27.08,49.11,29,47.4c.07.73.15,1.39.2,2.05.13,1.6.26,3.21.36,4.81a1.58,1.58,0,0,1-.15.7A5.73,5.73,0,0,1,28.91,55.75Zm-.23-2c-.1-1.07-.17-2.15-.27-3.23,0-.23-.09-.46-.18-.9a87.59,87.59,0,0,0-14.7,35.18,6.11,6.11,0,0,0,.79-.49c1-.87,2.08-1.74,3.09-2.66a1.7,1.7,0,0,0,.43-.88,79.17,79.17,0,0,1,10.54-25.8A1.77,1.77,0,0,0,28.68,53.71Zm-18.2,46.42,9.63-7.54c-.07,2.53-.2,5-.2,7.43s.14,4.92.22,7.53A103.15,103.15,0,0,0,10.48,100.13Zm8.69-5.8L11.8,100.1c.51.35,1,.62,1.36.94,1.67,1.32,3.33,2.66,5,4,.29.23.62.43,1,.69ZM9.07,105.86c4.22,3.06,8.14,6.47,12.07,9.88a2,2,0,0,1,.62,1.2,81,81,0,0,0,5.49,16.71,71.76,71.76,0,0,0,5.41,9.84,3.05,3.05,0,0,1,.52,2.16c-.26,2.58-.38,5.18-.64,7.77s-.63,5-1,7.45a4.91,4.91,0,0,1-.21.69c-3.21-2.35-11.66-15.47-15.51-24A88.61,88.61,0,0,1,8,105.49l.22-.13C8.5,105.53,8.8,105.67,9.07,105.86ZM31,159.94c.07-.38.12-.55.13-.72.31-2.9.62-5.79.91-8.68.16-1.54.3-3.08.44-4.62a3.26,3.26,0,0,0-.56-2.1A78.79,78.79,0,0,1,21,117.16a1.71,1.71,0,0,0-.66-1.07c-1.08-.88-2.12-1.81-3.2-2.69-2.42-2-4.85-3.94-7.28-5.91-.25-.2-.54-.36-1-.65A91,91,0,0,0,31,159.94Zm-13.5-42.63a3.59,3.59,0,0,1,1.35,2.14c.44,1.89.85,3.8,1.38,5.67a73,73,0,0,0,8.66,19.13,3.7,3.7,0,0,1,.61,2.69c-.24,1.68-.3,3.39-.44,5.09,0,.2-.06.4-.1.6l-.19,0a86.26,86.26,0,0,1-16.09-39.33c.24.17.49.32.71.5C14.72,115,16.05,116.2,17.46,117.31Zm.62,14.1a89.68,89.68,0,0,0,10.13,19.23c.08-.4.14-.56.15-.73.1-1,.18-2.09.29-3.14a2.88,2.88,0,0,0-.45-1.84,87.65,87.65,0,0,1-6.86-13.87,73.75,73.75,0,0,1-3.46-11.64,2.07,2.07,0,0,0-.78-1.3c-.88-.68-1.7-1.44-2.54-2.17l-.74-.58C13.59,117.31,15.79,125.55,18.08,131.41Zm31,30.74L37,163.66c.48-4,1-8,1.47-12.1A94.45,94.45,0,0,0,49.1,162.15Zm-6.62,0c1.51-.19,3-.34,4.58-.51l-8-8c-.39,3.06-.77,6-1.16,9.13C39.49,162.54,41,162.31,42.48,162.12Zm-.32,6.53c3.48-.35,7-.68,10.44-1,.77-.07,1.55-.09,2.3-.23a2.87,2.87,0,0,1,2.27.55,64.38,64.38,0,0,0,11.52,6.16c2.4,1,4.86,1.82,7.3,2.73l.84.31c-4.55,2.48-9,4.77-13.12,7.89A85.87,85.87,0,0,1,39.1,169.31l0-.24C40.14,168.93,41.15,168.75,42.16,168.65Zm-.69,1.78c1.38,1.1,2.74,2.22,4.15,3.28a88.67,88.67,0,0,0,17.1,10,1.17,1.17,0,0,0,1.36,0,90.43,90.43,0,0,1,9.84-6l.76-.45a4.27,4.27,0,0,0-.45-.25c-1.3-.49-2.62-1-3.91-1.48a65.26,65.26,0,0,1-13.66-7.06,2.58,2.58,0,0,0-1.85-.4c-2.09.22-4.19.39-6.28.61s-4.43.46-6.64.72a8.31,8.31,0,0,0-1.14.27C41.07,170.06,41.26,170.26,41.47,170.43Zm12.16.63a3.46,3.46,0,0,1,2.56.53,59,59,0,0,0,11,5.81l.85.4c-1.59,1-3,2-4.51,2.89a.91.91,0,0,1-.75-.06A87.49,87.49,0,0,1,49.3,173c-.5-.35-1-.74-1.59-1.21a6.47,6.47,0,0,1,.66-.17C50.12,171.41,51.88,171.26,53.63,171.06Zm-2.77,1.87a87.49,87.49,0,0,0,11.8,6.81,1,1,0,0,0,.76,0c.89-.53,1.75-1.13,2.74-1.77-.38-.21-.61-.35-.86-.47a58.46,58.46,0,0,1-9.52-5.18,2.91,2.91,0,0,0-2.22-.43c-1.06.14-2.11.33-3.27.52A6,6,0,0,0,50.86,172.93ZM95.4,192.49a82.77,82.77,0,0,1-25.43-5c4.77-3.29,9.86-5.59,14.88-8.15C88.38,183.69,92.21,187.69,95.4,192.49Zm-23.52-5.28c3.11,1.82,19,4.9,21.85,4.25-2.86-3.89-6-7.5-9.2-11.08C80.26,182.63,75.93,184.6,71.88,187.21Zm7.2-.8,4.71-2.47a27.45,27.45,0,0,1,3.44,4,43.18,43.18,0,0,1-8.12-1.36Zm6.35.51c-.69-.77-1.24-1.37-1.81-2l-2.12,1.18A10.44,10.44,0,0,0,85.43,186.92Zm15.22-6.18c2.42,0,4.85-.15,7.46-.24-1.34,1.65-2.62,3.18-3.84,4.76s-2.37,3.16-3.6,4.82l-7.49-9.58C95.74,180.59,98.19,180.74,100.65,180.74Zm5.7.62c-1.39.06-2.61.12-3.83.15s-2.53,0-3.8,0-2.42-.18-3.79-.09c2,2.55,3.83,4.94,5.7,7.33Zm9.6-1.52a2.72,2.72,0,0,1,1.68-1,78.51,78.51,0,0,0,19.08-6.57,44.12,44.12,0,0,0,7.13-4.14,3.64,3.64,0,0,1,2.78-.71c3.44.38,6.9.64,10.34,1,1.72.18,3.43.46,5.18.7-.87,1.65-10.92,9-16.68,12.18a87.29,87.29,0,0,1-19.08,7.87A99.63,99.63,0,0,1,106,192.63l-.14-.22a8.64,8.64,0,0,1,.57-.91C109.63,187.61,112.81,183.74,116,179.84Zm44.45-10c0-.07,0-.13-.05-.2-.33-.06-.66-.15-1-.18-3.85-.38-7.71-.66-11.54-1.17a6.2,6.2,0,0,0-4.39,1.09,78.64,78.64,0,0,1-25.33,10.07,2.67,2.67,0,0,0-1.68,1c-.43.57-.89,1.11-1.35,1.66q-3.7,4.51-7.42,9a2.24,2.24,0,0,0-.19.48A90.46,90.46,0,0,0,160.4,169.87Zm-42.62,13.29a4.19,4.19,0,0,1,2.54-1.39c2-.47,4-.9,5.94-1.48a75.6,75.6,0,0,0,19.17-8.82,2.06,2.06,0,0,1,1.39-.34c1.79.17,3.58.28,5.37.42.36,0,.71.09,1.07.13a86.11,86.11,0,0,1-39.51,16.56c.34-.5.55-.83.8-1.13C115.62,185.79,116.73,184.5,117.78,183.16Zm-1.73,3.89a87,87,0,0,0,18.28-5.37c5.81-2.42,15.59-7.91,16.54-9.28l-2.82-.44a3.93,3.93,0,0,0-3,.61c-.88.62-1.81,1.2-2.74,1.74a72.06,72.06,0,0,1-16,6.87c-2.08.6-4.2,1.06-6.31,1.54a2.72,2.72,0,0,0-1.58,1c-.57.73-1.19,1.42-1.78,2.13-.25.3-.49.62-.73.93Z"/><path class="cls-1" d="M168.73,126.12c-.75,2-1.59,3.93-2.5,5.82a72.54,72.54,0,0,1-6.89,11.41h0a73.88,73.88,0,0,1-59,30.15h0a72.7,72.7,0,0,1-16.13-1.81l3.63-7.78a64.38,64.38,0,0,0,12.5,1.23h0a63.64,63.64,0,0,0,20.77-3.51l-16-36.36,4.59-10,19.32,43a66.38,66.38,0,0,0,19.78-15.17L118.07,76.8,75.81,169.24a73.11,73.11,0,0,1-21.12-11.81l3.63-7.8a64.61,64.61,0,0,0,13.24,8.74l24.16-53-13-28.25L48,151.4a73,73,0,0,1-20.91-51v-.11a73,73,0,0,1,21.51-51.7h0a73,73,0,0,1,51.65-21.48h.19a71.77,71.77,0,0,1,17.49,2.21,74.15,74.15,0,0,1,50.81,45.18h-9a65.92,65.92,0,0,0-43.86-37.08,63.36,63.36,0,0,0-15.44-1.95h-.19a64.68,64.68,0,0,0-45.74,19h0a64.66,64.66,0,0,0-19,45.8v.11a64.46,64.46,0,0,0,10.33,35L82.57,57.94l17.8,38.26,17.88-38.26,36.58,77.3a64.23,64.23,0,0,0,3.89-6.92c.35-.72.7-1.46,1-2.2"/><path class="cls-1" d="M212.5,161.58v7.84h-1.62V150.16h6.56a6.93,6.93,0,0,1,4.74,1.54,6,6,0,0,1,.07,8.4,7.09,7.09,0,0,1-4.85,1.48Zm0-1.38h4.94a5.2,5.2,0,0,0,3.61-1.12,4,4,0,0,0,1.24-3.14,4.22,4.22,0,0,0-1.23-3.19,5,5,0,0,0-3.52-1.21h-5Z"/><path class="cls-1" d="M234.76,161.4h-5.6v8h-1.64V150.16h6.26a7.15,7.15,0,0,1,4.81,1.49,5.71,5.71,0,0,1,.65,7.44,5.48,5.48,0,0,1-2.91,2l4.82,8.2v.17h-1.74Zm-5.6-1.38h5a4.61,4.61,0,0,0,3.29-1.17,3.94,3.94,0,0,0,1.24-3,4,4,0,0,0-1.29-3.17,5.44,5.44,0,0,0-3.64-1.12h-4.59Z"/><path class="cls-1" d="M259,160.84a11.18,11.18,0,0,1-.92,4.67,7,7,0,0,1-2.63,3.09,7.11,7.11,0,0,1-3.94,1.09,6.85,6.85,0,0,1-5.45-2.42,9.67,9.67,0,0,1-2.07-6.51v-2a11.08,11.08,0,0,1,.93-4.66A7.38,7.38,0,0,1,255.4,151a7,7,0,0,1,2.63,3,11.1,11.1,0,0,1,1,4.54Zm-1.63-2.09a8.5,8.5,0,0,0-1.57-5.45,5.66,5.66,0,0,0-8.59,0,8.5,8.5,0,0,0-1.6,5.52v2a8.52,8.52,0,0,0,1.59,5.43,5.68,5.68,0,0,0,8.63,0,8.76,8.76,0,0,0,1.54-5.51Z"/><path class="cls-1" d="M275.8,151.54h-6.6v17.88h-1.62V151.54H261v-1.38H275.8Z"/><path class="cls-1" d="M289.55,160.19h-9v7.86H290.9v1.37h-12V150.16h11.92v1.38H280.54v7.28h9ZM286.26,145h1.91l-3.05,3.69h-1.39Z"/><path class="cls-1" d="M308.23,167.14a5.39,5.39,0,0,1-2.65,1.87,11.49,11.49,0,0,1-4,.68,7.49,7.49,0,0,1-4-1.09,7.18,7.18,0,0,1-2.72-3.06,10.51,10.51,0,0,1-1-4.56v-2.43a9.31,9.31,0,0,1,2-6.33,6.86,6.86,0,0,1,5.44-2.32,7.22,7.22,0,0,1,4.79,1.51,6.25,6.25,0,0,1,2.16,4.17h-1.63a5,5,0,0,0-1.73-3.21,5.53,5.53,0,0,0-3.57-1.1,5.25,5.25,0,0,0-4.28,1.92,8.33,8.33,0,0,0-1.57,5.42v2.27a9.47,9.47,0,0,0,.75,3.89,5.87,5.87,0,0,0,2.14,2.62,5.72,5.72,0,0,0,3.21.92,9,9,0,0,0,3.61-.66,3.8,3.8,0,0,0,1.45-1v-5h-5.17v-1.38h6.8Z"/><path class="cls-1" d="M323.49,160.19h-9v7.86h10.35v1.37h-12V150.16h11.92v1.38H314.48v7.28h9Z"/><path class="cls-1" d="M335.46,161.4h-5.6v8h-1.64V150.16h6.26a7.15,7.15,0,0,1,4.81,1.49,5.22,5.22,0,0,1,1.74,4.18,5.15,5.15,0,0,1-1.09,3.26,5.48,5.48,0,0,1-2.91,2l4.82,8.2v.17h-1.74Zm-5.6-1.38h5a4.6,4.6,0,0,0,3.29-1.17,4,4,0,0,0,1.25-3,4,4,0,0,0-1.3-3.17,5.43,5.43,0,0,0-3.64-1.12h-4.59Z"/><path class="cls-1" d="M357.85,167l.11.41.12-.41,6.06-16.88h1.78l-7.17,19.26h-1.56L350,150.16h1.77Z"/><path class="cls-1" d="M382.82,160.84a11.18,11.18,0,0,1-.92,4.67,7,7,0,0,1-2.63,3.09,7.14,7.14,0,0,1-3.94,1.09,6.84,6.84,0,0,1-5.45-2.42,9.62,9.62,0,0,1-2.08-6.51v-2a11.08,11.08,0,0,1,.93-4.66,7.26,7.26,0,0,1,2.64-3.12,7.69,7.69,0,0,1,7.86,0,7,7,0,0,1,2.62,3,10.94,10.94,0,0,1,1,4.54Zm-1.63-2.09a8.5,8.5,0,0,0-1.57-5.45,5.67,5.67,0,0,0-8.6,0,8.56,8.56,0,0,0-1.59,5.52v2a8.52,8.52,0,0,0,1.59,5.43,5.67,5.67,0,0,0,8.62,0,8.76,8.76,0,0,0,1.55-5.51Z"/><path class="cls-1" d="M399.63,151.54H393v17.88H391.4V151.54h-6.58v-1.38h14.81Z"/><path class="cls-1" d="M409.94,161.4h-5.6v8H402.7V150.16H409a7.2,7.2,0,0,1,4.82,1.49,5.24,5.24,0,0,1,1.73,4.18,5.15,5.15,0,0,1-1.09,3.26,5.48,5.48,0,0,1-2.91,2l4.82,8.2v.17H414.6Zm-5.6-1.38h5a4.58,4.58,0,0,0,3.29-1.17,4,4,0,0,0,1.25-3,4,4,0,0,0-1.3-3.17,5.41,5.41,0,0,0-3.64-1.12h-4.59Z"/><path class="cls-1" d="M430.58,160.19h-9v7.86h10.36v1.37h-12V150.16h11.92v1.38H421.57v7.28h9Z"/><path class="cls-1" d="M443.57,161.58v7.84h-1.63V150.16h6.56a6.91,6.91,0,0,1,4.74,1.54,6,6,0,0,1,.07,8.4,7.07,7.07,0,0,1-4.85,1.48Zm0-1.38h4.93a5.2,5.2,0,0,0,3.61-1.12,4,4,0,0,0,1.25-3.14,4.22,4.22,0,0,0-1.24-3.19,5,5,0,0,0-3.51-1.21h-5Z"/><path class="cls-1" d="M469.26,160.19h-9v7.86h10.36v1.37h-12V150.16h11.92v1.38H460.25v7.28h9Z"/><path class="cls-1" d="M484.43,164h-8.74l-2,5.41H472l7.29-19.26h1.55l7.28,19.26h-1.69Zm-8.24-1.37h7.73l-3.87-10.49Z"/><path class="cls-1" d="M504,150.16v13.15a6.72,6.72,0,0,1-.86,3.39,5.56,5.56,0,0,1-2.39,2.21,7.75,7.75,0,0,1-3.54.78,7,7,0,0,1-4.87-1.66,6.05,6.05,0,0,1-1.9-4.6V150.16h1.61v13a5,5,0,0,0,1.39,3.78,6,6,0,0,0,7.53,0,5,5,0,0,0,1.39-3.76V150.16Z"/><path class="cls-1" d="M253.38,48a42.3,42.3,0,0,1,42.3,42.35,40.81,40.81,0,0,1-12.42,29.94,42.29,42.29,0,0,1-59.87,0A40.81,40.81,0,0,1,211,90.32a41,41,0,0,1,12.47-29.93A40.82,40.82,0,0,1,253.38,48Zm-.06,76.65a34.18,34.18,0,0,0,34.3-34.3,34.3,34.3,0,1,0-68.6,0,34.19,34.19,0,0,0,34.3,34.3Z"/><path class="cls-1" d="M305.29,122.85a5.06,5.06,0,0,1,0,7.19,4.86,4.86,0,0,1-3.57,1.5,5.1,5.1,0,1,1,0-10.19A4.86,4.86,0,0,1,305.29,122.85Z"/><path class="cls-1" d="M400.93,46.29l.11,85.44h-7.77V76.67L360,132.79,327,77.23v54.5h-7.67V46.12l41,70.5Z"/><path class="cls-1" d="M490.29,101a42.51,42.51,0,0,1-15.22,23,41.27,41.27,0,0,1-25.85,8.79,40.61,40.61,0,0,1-29.88-12.42,40.81,40.81,0,0,1-12.42-29.94A40.74,40.74,0,0,1,419.34,60.5a42.26,42.26,0,0,1,56.07-3.36A42,42,0,0,1,490.57,80.7h-8a34.91,34.91,0,0,0-12.48-18.07,34.68,34.68,0,0,0-55.56,27.75,34.7,34.7,0,0,0,55.23,28A34.92,34.92,0,0,0,482.4,101Z"/><path class="cls-1" d="M484.26,40.16a9.78,9.78,0,0,1,1.3-4.94,9.38,9.38,0,0,1,3.58-3.6,10,10,0,0,1,9.89,0,9.38,9.38,0,0,1,3.58,3.6,9.78,9.78,0,0,1,1.3,4.94A10,10,0,0,1,502.66,45a9.8,9.8,0,0,1-8.57,5,9.76,9.76,0,0,1-8.57-5A9.9,9.9,0,0,1,484.26,40.16Zm1.59,0a8.27,8.27,0,0,0,1.11,4.2,8,8,0,0,0,3,3,8.23,8.23,0,0,0,11.26-3.05,8.5,8.5,0,0,0,0-8.33,8,8,0,0,0-3-3A8.34,8.34,0,0,0,490,33a7.94,7.94,0,0,0-3,3A8.27,8.27,0,0,0,485.85,40.15Zm6.21,1v4.46h-2V34.41h3.83a5.4,5.4,0,0,1,3.28.87,2.92,2.92,0,0,1,1.17,2.51,2.69,2.69,0,0,1-1.77,2.48A2.62,2.62,0,0,1,498.32,43v.8a4.13,4.13,0,0,0,.23,1.64v.21h-2a5.08,5.08,0,0,1-.19-1.7c0-.81,0-1.29,0-1.44-.15-.84-.75-1.28-1.82-1.32Zm0-1.69h2.16a2.83,2.83,0,0,0,1.6-.46,1.33,1.33,0,0,0,.61-1.14,1.59,1.59,0,0,0-.54-1.36,3.34,3.34,0,0,0-1.92-.4h-1.91Z"/></svg>